<?xml version="1.0" encoding="iso-8859-1"?>
<!-- Uploaded to: SVG Repo, www.svgrepo.com, Generator: SVG Repo Mixer Tools -->
<!DOCTYPE svg PUBLIC "-//W3C//DTD SVG 1.1//EN" "http://www.w3.org/Graphics/SVG/1.1/DTD/svg11.dtd">
<svg height="800px" width="800px" version="1.1" id="Capa_1" xmlns="http://www.w3.org/2000/svg" xmlns:xlink="http://www.w3.org/1999/xlink" 
	 viewBox="0 0 48.994 48.994" xml:space="preserve">
<g>
	<path style="fill:#1D1D1B;" d="M23.945,40.849c-2.721-2.864,0.274-14.889-5.328-15.852c4.523-2.488,6.437-8.431,3.699-13.054
		c-3.838-6.479-15.32-5.883-21.59-4.617C0.486,7.374,0.451,7.597,0.53,7.775C0.302,7.798,0.096,7.953,0.104,8.257
		c0.295,10.797-0.174,21.536-0.095,32.321c0.002,0.326,0.54,0.425,0.59,0.08C2.132,30.09,1.895,18.886,1.128,8.257
		c-0.007-0.1-0.042-0.18-0.087-0.25c5.15,0.246,11.233-0.771,16.062,1.272c0.937,0.396,1.722,0.873,2.383,1.405
		c-1.594-0.157-3.191-0.288-4.784-0.431c-0.083-0.008-0.082,0.12,0,0.129c1.673,0.167,3.35,0.351,5.027,0.499
		c0.729,0.633,1.284,1.341,1.68,2.098c-2.093-0.159-4.193-0.272-6.289-0.376c-0.083-0.004-0.082,0.122,0,0.129
		c2.122,0.168,4.25,0.328,6.377,0.439c0.375,0.776,0.603,1.596,0.669,2.439c-1.853-0.185-3.794-0.038-5.584,0.401
		c-0.061,0.015-0.034,0.1,0.025,0.092c1.895-0.275,3.693-0.333,5.575-0.281c0.041,0.85-0.062,1.717-0.299,2.571
		c-0.511,0.075-1.024,0.134-1.543,0.143c-0.558,0.01-1.174-0.14-1.722-0.075c-0.371,0.043-0.727,0.174-0.652,0.587
		c0.015,0.084,0.137,0.047,0.126-0.035c-0.083-0.598,2.243-0.282,2.625-0.297c0.371-0.014,0.738-0.048,1.103-0.101
		c-0.18,0.591-0.415,1.175-0.715,1.742c-1.222,0.176-2.416,0.319-3.667,0.252c-0.101-0.005-0.1,0.15,0,0.156
		c1.167,0.075,2.387,0.048,3.546-0.197c-0.256,0.459-0.54,0.909-0.868,1.338c-1.361,0.448-2.717,0.764-4.153,0.86
		c-0.069,0.005-0.069,0.111,0,0.108c1.372-0.075,2.728-0.316,4.021-0.787c-0.809,1.017-1.81,1.933-2.976,2.669
		c-0.105,0.067-0.166,0.165-0.191,0.272c-0.015,0.003-0.027,0.003-0.042,0.005c-0.276,0.05-0.246,0.46,0,0.529
		c1.584,0.443,2.579,1.21,3.212,2.179c-1.246-0.417-2.551-0.469-3.835-0.175c-0.035,0.008-0.02,0.06,0.015,0.053
		c1.341-0.278,2.636-0.16,3.921,0.289c0.281,0.471,0.492,0.981,0.636,1.529c-1.374-0.086-2.755-0.12-4.127-0.177
		c-0.066-0.003-0.066,0.1,0,0.103c1.384,0.074,2.775,0.174,4.163,0.218c0.168,0.693,0.252,1.434,0.29,2.203
		c-1.145-0.075-2.292,0.003-3.423,0.202c-0.076,0.014-0.043,0.128,0.032,0.116c1.137-0.179,2.256-0.213,3.397-0.163
		c0.036,0.847,0.027,1.721,0.028,2.595c-1.072-0.038-2.154,0.006-3.224,0.015c-0.076,0.001-0.076,0.117,0,0.118
		c1.07,0.009,2.153,0.054,3.225,0.015c0.002,0.813,0.016,1.623,0.092,2.404c-0.894-0.022-1.793,0.005-2.685,0.011
		c-0.053,0-0.053,0.082,0,0.082c0.896,0.006,1.799,0.033,2.697,0.01c0.065,0.618,0.166,1.22,0.334,1.788
		c-1.08-0.019-2.163-0.004-3.241,0.007c-0.065,0.001-0.065,0.101,0,0.101c1.09,0.011,2.185,0.027,3.277,0.007
		c0.146,0.469,0.336,0.916,0.586,1.333c-1.962-0.152-4.12,0.177-6.002,0.56c0.026-2.464,0.089-4.935,0.044-7.4
		c-0.028-1.566-0.11-3.036-1.057-4.352c-1.691-2.349-4.519-2.798-7.198-2.378c-0.104-0.055-0.215-0.049-0.285,0.039
		c0,0-0.001,0-0.002,0c-0.203,0.037-0.209,0.269-0.095,0.391c-0.013,0.091-0.02,0.182-0.032,0.273
		c-1.04-0.216-2.093-0.265-3.151-0.176c-0.079,0.007-0.08,0.13,0,0.125c1.059-0.074,2.09,0.006,3.133,0.206
		c-0.066,0.513-0.129,1.026-0.18,1.54c-1.119-0.062-2.256-0.004-3.375,0.002c-0.105,0-0.105,0.162,0,0.163
		c1.112,0.006,2.243,0.063,3.355,0.003c-0.073,0.769-0.132,1.54-0.181,2.312c-0.99,0.046-1.98,0.117-2.969,0.179
		c-0.08,0.005-0.08,0.129,0,0.124c0.986-0.051,1.974-0.094,2.96-0.161c-0.055,0.887-0.102,1.774-0.142,2.663
		c-1.088,0.038-2.143,0.014-3.222-0.18c-0.075-0.014-0.108,0.101-0.032,0.116c1.068,0.204,2.163,0.298,3.248,0.193
		c-0.034,0.761-0.067,1.523-0.104,2.284c-0.969,0.11-1.926,0.178-2.912,0.123c-0.076-0.004-0.075,0.113,0,0.118
		c0.962,0.065,1.944,0.06,2.903-0.077c-0.031,0.618-0.059,1.236-0.1,1.852c-1.011,0.014-1.993-0.007-3.003-0.184
		c-0.064-0.011-0.091,0.086-0.027,0.098c0.988,0.186,2.011,0.293,3.018,0.232c-0.035,0.512-0.074,1.023-0.121,1.533
		c-1.924-0.259-3.998-0.137-5.915,0.117c-0.433,0.057-0.461,0.673,0,0.696c1.937,0.097,3.899,0.309,5.837,0.333
		c0.1,0.001,0.184-0.03,0.26-0.074c0.284,0.125,0.724-0.021,0.774-0.435c0.555-4.562,0.999-9.301,0.549-13.893
		c3.609,0.258,6.548,1.658,6.759,5.744c0.137,2.641,0.022,5.318,0.047,7.963c0.003,0.318,0.206,0.5,0.443,0.559
		c0.059,0.121,0.174,0.212,0.335,0.208c2.456-0.076,5.119,0.169,7.554-0.148C23.786,42.014,24.415,41.343,23.945,40.849z"/>
	<path style="fill:#1D1D1B;" d="M15.153,17.963c-0.298-3.943-4.305-5.558-7.757-4.961c-0.126-0.06-0.274-0.039-0.372,0.073
		c-0.589,0.158-0.563,0.87-0.182,1.185c-0.007,0.076-0.012,0.152-0.019,0.228c-0.764-0.07-1.529,0.008-2.271,0.206
		C4.463,14.717,4.5,14.853,4.589,14.83c0.742-0.188,1.47-0.225,2.22-0.177c-0.052,0.589-0.102,1.18-0.145,1.773
		c-0.484-0.007-0.969-0.004-1.454-0.001c-0.067,0-0.067,0.103,0,0.103c0.482,0.003,0.964,0.006,1.447-0.001
		c-0.103,1.413-0.176,2.83-0.175,4.24c-0.631,0.105-1.257,0.134-1.901,0.051c-0.072-0.009-0.09,0.118-0.017,0.128
		c0.647,0.093,1.287,0.09,1.921-0.027c0.002,0.504,0.004,1.008,0.027,1.509c0.01,0.216,0.118,0.352,0.256,0.426
		c0.043,0.036,0.094,0.065,0.164,0.075c2.047,0.277,4.207,0.489,6.049-0.666C14.471,21.328,15.285,19.715,15.153,17.963z
		 M7.552,22.165c0.229-2.576,0.171-5.215,0.065-7.809c2.705-0.551,5.959,0.531,6.196,3.696
		C14.077,21.559,10.266,22.096,7.552,22.165z"/>
	<path style="fill:#1D1D1B;" d="M48.761,23.708c0.081-0.24-0.086-0.584-0.39-0.606c-1.859-0.136-3.704-0.117-5.566-0.087
		c-1.62,0.026-3.3-0.128-4.883,0.228c-0.071,0.016-0.113,0.063-0.158,0.105c-0.179-0.116-0.462-0.036-0.497,0.249
		c-0.207,1.7-0.322,3.393-0.376,5.104c-0.01,0.332,0.274,0.549,0.576,0.576c1.256,0.114,3.073,0.294,4.246-0.364
		c-0.108,1.621-0.059,3.405-0.523,4.957c-0.63,2.107-2.032,2.518-4.006,2.577c-1.568-0.612-2.324-2.263-2.981-3.829
		c-0.403-5.145-1.484-19.718,3.053-20.481c2.18,0.369,3.053,2.643,3.12,4.635c0.017,0.487,0.428,0.702,0.802,0.663
		c-0.074,0.198-0.017,0.432,0.252,0.487c1.83,0.375,3.908,0.676,5.772,0.574c0.221-0.012,0.389-0.143,0.497-0.311
		c0.213,0.005,0.428-0.133,0.447-0.42c0.434-6.591-2.679-11.45-9.58-11.616c-7.72-0.186-11.345,5.102-12.371,12.288
		c-0.83,5.814-1.156,16.246,2.846,21.143c3.853,4.714,10.16,4.026,13.85-0.115c-0.008,0.198-0.017,0.396-0.025,0.592
		c-0.026,0.594-0.133,1.208,0.135,1.751c0.013,0.027,0.041,0.039,0.059,0.06c-0.058,0.162-0.015,0.355,0.195,0.405
		c1.814,0.433,3.454,0.428,5.297,0.171c0.243-0.034,0.452-0.34,0.438-0.575C48.626,35.813,48.832,29.767,48.761,23.708z
		 M47.917,24.01c-0.025,0.269-0.038,0.538-0.059,0.807c-3.286,0.265-6.567,0.621-9.847,0.948c-0.018-0.572-0.04-1.144-0.077-1.716
		C40.927,24.806,44.79,24.449,47.917,24.01z M47.804,40.239c-0.635-0.012-1.271-0.023-1.903,0.002c-0.077,0.003-0.078,0.117,0,0.12
		c0.624,0.025,1.253,0.013,1.879,0.001c-0.195,0.641-0.826,1.042-1.906,1.197c-0.694,0.027-1.389,0.048-2.083,0.068
		c0.172-0.498,0.098-1.041,0.075-1.571c-0.027-0.63-0.036-1.272-0.138-1.895c-0.052-0.319-0.521-0.337-0.667-0.086
		c-0.018,0.015-0.038,0.024-0.054,0.045c-2.42,3.117-7.402,5.486-11.114,2.572c-2.961-2.325-3.824-5.589-4.221-9.084
		c-0.397-3.505-0.717-7.074-0.489-10.599c0.34-5.263,1.884-11.585,7.645-13.301c1.867-0.556,4.216-0.556,6.336-0.007
		c-2.011,0.063-4.025,0.156-6.024,0.306c-0.069,0.005-0.071,0.11,0,0.11c2.223-0.011,4.46-0.088,6.687-0.207
		c1.06,0.343,2.049,0.816,2.849,1.453c0.187,0.148,0.343,0.329,0.502,0.507c-4.001-0.227-8.009,0.116-11.948,0.824
		c-0.072,0.013-0.041,0.121,0.03,0.11c4.026-0.643,8.004-0.824,12.067-0.783c0.579,0.708,0.97,1.601,1.243,2.56
		c-1.961-0.314-3.956-0.405-5.94-0.408c-0.103,0-0.103,0.159,0,0.16c2.01,0.03,3.991,0.227,5.987,0.438
		c0.199,0.748,0.331,1.531,0.425,2.293c-1.477-0.174-2.978-0.281-4.455-0.341c-0.078-0.003-0.085,0.106-0.018,0.13
		c0.341,0.12,0.668,0.258,1.002,0.398c0.042,0.017,0.073-0.055,0.031-0.073c-0.295-0.127-1.148-0.334-0.213-0.232
		c0.467,0.051,0.935,0.089,1.403,0.131c0.756,0.068,1.513,0.139,2.271,0.187c0.079,0.691,0.132,1.364,0.174,1.973
		c-1.783-0.285-3.763-0.253-5.559-0.101c0.061-0.1,0.106-0.215,0.104-0.364c-0.036-2.546-1.479-5.256-4.163-5.445
		c-1.469-0.419-2.53,0.127-3.292,1.269c-0.75-0.202-1.565-0.047-2.237,0.322c-0.088,0.049-0.01,0.181,0.079,0.135
		c0.672-0.346,1.332-0.387,2.045-0.288c-0.302,0.495-0.558,1.079-0.764,1.752c-0.819-0.186-1.648-0.082-2.416,0.272
		c-0.082,0.038-0.011,0.156,0.07,0.12c0.747-0.331,1.519-0.388,2.308-0.254c-0.534,1.821-0.757,4.176-0.788,6.628
		c-0.009-0.002-0.01-0.016-0.022-0.013c-0.759,0.2-1.522,0.273-2.304,0.206c-0.076-0.007-0.075,0.111,0,0.118
		c0.792,0.076,1.56,0.012,2.325-0.205c-0.008,0.736-0.001,1.478,0.022,2.218c-0.799-0.086-1.588-0.039-2.376,0.137
		c-0.06,0.013-0.034,0.105,0.025,0.091c0.78-0.172,1.562-0.202,2.354-0.134c0.027,0.817,0.068,1.629,0.123,2.418
		c-0.683-0.084-1.366-0.159-2.05-0.233c-0.08-0.009-0.078,0.115,0,0.124c0.686,0.081,1.371,0.161,2.059,0.232
		c0.15,2.107,0.382,4.051,0.612,5.515c-0.125,0.066-0.229,0.173-0.223,0.323c0.02,0.451,0.089,0.923,0.203,1.392
		c-0.668,0.03-1.326-0.024-2-0.2c-0.03-0.008-0.043,0.039-0.013,0.047c0.666,0.181,1.35,0.26,2.033,0.232
		c0.524,2.062,1.938,4.061,4.117,4.035c0.81,0.277,1.692,0.134,2.476-0.246c2.388-0.382,4.766-0.598,7.178-0.778
		c0.096-0.007,0.099-0.154,0-0.152c-2.291,0.044-4.592,0.344-6.848,0.763c0.513-0.304,0.967-0.711,1.307-1.168
		c0.27-0.363,0.464-0.753,0.629-1.152c1.66-0.041,3.378-0.249,4.948-0.751c0.091-0.029,0.054-0.162-0.039-0.142
		c-1.623,0.339-3.207,0.621-4.851,0.747c0.711-1.861,0.473-4.029,0.363-5.98c-0.022-0.383-0.369-0.525-0.638-0.429
		c-0.041-0.077-0.102-0.144-0.208-0.17c-0.669-0.163-1.344-0.022-2.027,0.014c-0.59,0.031-1.173,0.028-1.759,0.004
		c0.006-0.749-0.004-1.497-0.026-2.244c3.275-0.279,6.556-0.53,9.825-0.87c-0.232,3.028-0.277,6.07-0.251,9.106
		c0.01,1.136,0.253,2.564,0.225,3.816c-1.273,0.095-2.544,0.222-3.815,0.346c-0.091,0.009-0.093,0.151,0,0.144
		c1.269-0.104,2.539-0.205,3.806-0.337c-0.014,0.334-0.044,0.657-0.111,0.952C47.847,39.516,47.874,39.904,47.804,40.239z"/>
	<path style="fill:#1D1D1B;" d="M6.489,18.535c-0.653-0.09-1.302,0.009-1.926,0.207c-0.068,0.022-0.04,0.129,0.03,0.108
		c0.623-0.188,1.236-0.226,1.883-0.213C6.532,18.638,6.547,18.543,6.489,18.535z"/>
	<path style="fill:#1D1D1B;" d="M33.04,31.195c-0.632-0.02-1.265-0.011-1.897-0.006c-0.06,0-0.06,0.092,0,0.093
		c0.633,0.004,1.265,0.014,1.897-0.006C33.091,31.273,33.092,31.197,33.04,31.195z"/>
	<path style="fill:#1D1D1B;" d="M32.828,28.696c-0.689,0.203-1.382,0.262-2.094,0.162c-0.054-0.008-0.078,0.075-0.023,0.083
		c0.73,0.108,1.436,0.062,2.141-0.158C32.908,28.766,32.885,28.68,32.828,28.696z"/>
	<path style="fill:#1D1D1B;" d="M32.618,18.548c-0.491-0.025-0.984-0.012-1.476-0.011c-0.061,0-0.061,0.095,0,0.095
		c0.492,0.001,0.985,0.015,1.476-0.011C32.666,18.62,32.666,18.551,32.618,18.548z"/>
	<path style="fill:#1D1D1B;" d="M32.827,16.068c-0.642,0.093-1.276,0.226-1.913,0.35c-0.091,0.018-0.052,0.156,0.038,0.138
		c0.636-0.121,1.274-0.233,1.903-0.385C32.925,16.155,32.894,16.058,32.827,16.068z"/>
	<path style="fill:#1D1D1B;" d="M47.379,31.803c-1.277,0.156-2.509,0.279-3.797,0.199c-0.088-0.006-0.087,0.13,0,0.137
		c1.265,0.099,2.573,0.093,3.817-0.185C47.482,31.936,47.466,31.792,47.379,31.803z"/>
	<path style="fill:#1D1D1B;" d="M47.166,30.107c-1.054-0.049-2.137,0.056-3.174,0.248c-0.068,0.013-0.038,0.111,0.028,0.102
		c1.054-0.147,2.084-0.194,3.146-0.212C47.254,30.243,47.254,30.111,47.166,30.107z"/>
	<path style="fill:#1D1D1B;" d="M46.956,27.804c-1.053,0.023-2.111,0.156-3.161,0.243c-0.076,0.006-0.078,0.125,0,0.12
		c1.051-0.065,2.116-0.087,3.161-0.216C47.047,27.94,47.054,27.802,46.956,27.804z"/>
</g>
</svg>